# xmcd
#
# Track frame offsets: 
#        183
#        13295
#        29693
#        44508
#        59065
#        76425
#        87195
#        103300
#        118553
#        136088
#
# Disc length: 1967 seconds
#
# Revision: 3
# Processed by: cddbd v1.5.2PL0 Copyright (c) Steve Scherf et al.
# Submitted via: ExactAudioCopyFreeDBPlugin 1.0
#
DISCID=8c07ad0a
DTITLE=Tracy Lawrence - Sticks And Stones
DYEAR=1991
DGENRE=Country
TTITLE0=Runnin' Behind
TTITLE1=Sticks And Stones
TTITLE2=Somebody Paints The Wall
TTITLE3=Dancin' To Sweet 17
TTITLE4=Today's Lonely Fool
TTITLE5=Paris, Tennessee
TTITLE6=Froze Over
TTITLE7=Between Us
TTITLE8=April's Fool
TTITLE9=I Hope Heaven Has A Honky Tonk
EXTD=
EXTT0=
EXTT1=
EXTT2=
EXTT3=
EXTT4=
EXTT5=
EXTT6=
EXTT7=
EXTT8=
EXTT9=
PLAYORDER=
